<?xml version="1.0" standalone="no"?>
<!DOCTYPE svg PUBLIC "-//W3C//DTD SVG 20010904//EN"
 "http://www.w3.org/TR/2001/REC-SVG-20010904/DTD/svg10.dtd">
<svg version="1.0" xmlns="http://www.w3.org/2000/svg"
 width="512.000000pt" height="512.000000pt" viewBox="0 0 512.000000 512.000000"
 preserveAspectRatio="xMidYMid meet">

<g transform="translate(0.000000,512.000000) scale(0.100000,-0.100000)"
fill="#000000" stroke="none">
<path d="M1881 4669 c-371 -35 -683 -325 -781 -727 l-22 -89 -42 8 c-68 13
-230 10 -306 -6 -161 -34 -304 -111 -425 -230 -134 -131 -222 -283 -272 -473
-23 -86 -26 -116 -26 -267 0 -152 2 -180 26 -270 15 -55 49 -145 76 -201 77
-156 156 -250 311 -369 154 -118 241 -218 310 -355 65 -129 87 -222 134 -560
55 -390 72 -438 192 -550 62 -58 103 -83 184 -111 62 -22 80 -23 444 -27 208
-2 398 -1 422 3 58 8 94 45 94 97 0 22 -5 48 -11 60 -24 45 -54 48 -467 48
-337 0 -395 2 -438 17 -67 23 -146 102 -167 168 -9 28 -32 169 -52 315 -42
309 -57 387 -92 484 -84 234 -218 411 -438 578 -121 92 -181 163 -241 283 -68
137 -87 222 -87 390 0 163 19 248 83 381 117 242 326 388 575 401 84 5 114 2
185 -17 140 -37 145 -37 183 1 31 31 34 41 40 109 24 287 180 531 412 645 95
47 172 65 280 65 178 0 325 -62 464 -197 124 -121 140 -121 258 -6 139 137
261 193 438 201 134 5 203 -9 325 -70 148 -75 279 -226 344 -399 28 -74 56
-211 56 -271 0 -32 7 -47 35 -75 40 -40 45 -40 185 -3 198 53 415 -1 583 -145
101 -87 197 -247 238 -401 31 -112 31 -325 1 -439 -45 -165 -149 -333 -263
-420 -253 -194 -333 -286 -433 -495 -67 -141 -92 -243 -140 -585 -46 -328 -54
-357 -115 -427 -16 -19 -51 -45 -78 -58 l-48 -25 -416 -5 c-437 -5 -429 -4
-466 -50 -23 -28 -15 -87 16 -122 l29 -33 419 0 c410 0 419 1 482 23 127 46
233 137 289 248 39 79 45 106 87 414 44 325 63 408 119 526 78 164 161 264
326 389 203 154 326 337 386 573 142 558 -180 1128 -698 1237 -75 16 -237 19
-304 6 l-42 -8 -22 89 c-98 404 -411 694 -783 726 -241 21 -469 -52 -639 -206
l-38 -34 -38 34 c-122 110 -299 190 -450 203 -37 4 -76 7 -87 9 -11 2 -58 -1
-104 -5z"/>
<path d="M1842 4149 c-113 -44 -222 -184 -257 -330 -55 -235 47 -490 233 -581
59 -29 76 -33 147 -33 71 0 88 4 147 33 286 141 335 607 87 836 -101 94 -235
122 -357 75z m188 -199 c73 -37 122 -140 123 -260 1 -95 -22 -164 -74 -224
-71 -80 -154 -82 -224 -5 -44 49 -63 92 -76 171 -20 121 29 258 109 309 54 34
88 36 142 9z"/>
<path d="M3030 4148 c-72 -28 -175 -130 -213 -212 -124 -263 -35 -587 191
-698 59 -29 76 -33 147 -33 71 0 88 4 147 33 143 70 233 224 245 417 10 165
-47 317 -158 419 -102 94 -234 122 -359 74z m192 -201 c77 -46 122 -144 122
-262 -1 -91 -25 -162 -75 -219 -73 -82 -155 -82 -228 0 -52 60 -75 129 -74
224 1 119 49 222 120 259 50 26 90 26 135 -2z"/>
<path d="M777 3346 c-245 -103 -349 -444 -217 -713 92 -187 284 -277 453 -213
117 44 223 173 262 320 19 72 19 210 0 285 -35 136 -127 260 -232 311 -80 40
-187 44 -266 10z m183 -198 c83 -42 139 -176 126 -301 -15 -149 -113 -261
-211 -243 -47 9 -100 57 -132 120 -38 74 -44 207 -13 290 35 93 99 151 170
155 9 1 36 -9 60 -21z"/>
<path d="M4125 3356 c-128 -40 -239 -171 -280 -331 -19 -75 -19 -213 0 -285
36 -136 126 -255 235 -308 47 -23 67 -27 145 -27 84 0 95 2 153 34 244 132
316 511 145 760 -95 137 -257 201 -398 157z m137 -196 c48 -14 100 -73 128
-146 31 -83 25 -216 -13 -290 -86 -169 -238 -160 -317 18 -63 143 -13 349 100
406 51 25 52 25 102 12z"/>
<path d="M2135 2800 c-141 -31 -187 -66 -471 -352 -252 -255 -283 -292 -339
-411 -48 -101 -66 -175 -72 -303 -15 -291 119 -554 364 -714 169 -112 389
-156 588 -119 92 17 216 66 289 114 l68 44 56 -38 c76 -52 102 -64 202 -96
121 -39 298 -46 422 -16 159 38 282 107 396 223 101 102 151 185 198 328 25
77 28 99 28 230 1 122 -3 157 -22 223 -24 84 -66 175 -115 247 -43 64 -502
525 -562 564 -126 83 -276 103 -439 58 -104 -29 -225 -29 -327 -2 -87 24 -207
33 -264 20z m222 -222 c112 -32 295 -31 411 1 108 30 200 26 264 -12 58 -34
517 -500 551 -558 139 -242 100 -547 -95 -739 -227 -225 -579 -238 -823 -30
-93 79 -117 79 -210 0 -75 -64 -179 -116 -270 -135 -307 -64 -613 117 -708
420 -32 105 -30 252 7 359 15 43 39 100 53 125 26 44 468 501 527 543 72 53
170 61 293 26z"/>
<path d="M2489 621 c-46 -47 -36 -121 21 -154 52 -31 107 -16 135 38 55 101
-74 197 -156 116z"/>
</g>
</svg>
